<?xml version="1.0" encoding="utf-8"?>
<!-- Generator: Adobe Illustrator 22.0.1, SVG Export Plug-In . SVG Version: 6.00 Build 0)  -->
<svg version="1.1" id="Calque_1" xmlns="http://www.w3.org/2000/svg" xmlns:xlink="http://www.w3.org/1999/xlink" x="0px" y="0px"
	 viewBox="0 0 800 800" style="enable-background:new 0 0 800 800;" xml:space="preserve">
<style type="text/css">
	.st0{fill:#FFFFFF;}
</style>
<g>
	<g>
		<path d="M579.5,32.2c1.1,0,2.1,0,3.2,0c4.1,1.1,8.2,2.5,12.4,3.3C646.6,46,673.4,87.1,663,139c-8.3,41.6-32.6,72.5-64,99
			c-4.1,3.4-7.6,7.4-11.4,11.2c0.6,1.5,1.3,3.1,1.9,4.6c20.7,0,41.4,0,62,0c20.5,0,41,0,63.2,0c0,61.6,0,118.6,0,176.7
			c-15.3,2-28.2,3.6-45.4,5.9c0,106.8,0,212.4,0,317.9c-180.8,0-361.5,0-542.3,0c0-52.9,0.3-105.8,0-158.7
			c-0.4-53,1.6-106.1-1.3-159.5c-17-2.1-29.9-3.7-46.3-5.8c0.5-58.8-2.3-115.8,2.1-177.2c50.4,0,98,0,145.7,0
			c0.1-1.8,0.3-3.6,0.4-5.4c-4.7-3.3-9.5-6.4-14.2-9.8c-32.4-23.1-57.2-51.3-62.4-92.8c-5.6-44.1,23.1-83.9,67-90.6
			c46.3-7.1,82.9,12.9,107.4,49.6c20.5,30.7,34.4,65.9,50.6,99.4c4.4,9.2,6.6,19.4,9.8,29.1c6.7-5.5,9.2-10.6,11.1-15.9
			c15-42.2,36-81.1,63.7-116.2c20.9-26.5,45.8-48.1,78.4-58.8C552.1,37.2,566,35.2,579.5,32.2z M354.9,707.7
			c-0.1-99.7,0.8-196.6-0.7-294.7c-63.6,0-122.3,0-180,0c-8.4,19-7.5,279.6,1,294.7C232.6,707.7,290.9,707.7,354.9,707.7z
			 M447.2,412.4c-8.6,19.9-7.6,280.2,0.6,294.7c58.1,0,116.8,0,174.5,0c8.4-19.3,7.3-279.8-1.2-294.7
			C563.8,412.4,505.5,412.4,447.2,412.4z M352.6,389.5c0-31.6,0-60.8,0-91.9c-76.4,0-150.4,0-226.5,0c0,31.5,0,60.6,0,91.9
			C202.1,389.5,275.7,389.5,352.6,389.5z M444.3,297.6c0,32.3,0,61.4,0,89.6c22.3,7.4,212.3,5.7,226.3-1.8c0-28,0-56.8,0-87.9
			C594.3,297.6,520.3,297.6,444.3,297.6z M436.5,254.8c18.7-2.2,35.5-0.1,47.9-6.4c32.1-16.5,63.4-35.3,92.9-56
			c22-15.5,34.1-39.6,38.6-66.4c4.2-24.9-11.9-43.3-37-42.9c-26.9,0.4-48.6,13.2-66.2,31.8c-30.8,32.6-53.4,70.7-68,113.3
			C442.3,234.9,440.4,241.9,436.5,254.8z M331.2,234.1c-9.4-48.1-27.1-90.5-65.3-121.5c-4.8-3.9-11-6.6-17.1-8.4
			c-15-4.4-30.1-4.4-41.6,8c-11,11.9-10.1,26.5-4.6,40.6c3.1,7.8,6.9,16,12.5,22.1C246,209,286.6,224.4,331.2,234.1z"/>
		<path class="st0" d="M579.5,32.2c-13.5,3-27.4,5-40.5,9.3c-32.6,10.7-57.5,32.3-78.4,58.8c-27.7,35.1-48.7,74-63.7,116.2
			c-1.9,5.3-4.4,10.4-11.1,15.9c-3.2-9.7-5.4-20-9.8-29.1c-16.2-33.5-30.1-68.7-50.6-99.4c-24.5-36.7-61.1-56.6-107.4-49.6
			c-43.9,6.7-72.7,46.5-67,90.6c5.3,41.5,30,69.7,62.4,92.8c4.7,3.3,9.5,6.5,14.2,9.8c-0.1,1.8-0.3,3.6-0.4,5.4
			c-47.6,0-95.3,0-145.7,0c-4.4,61.4-1.6,118.4-2.1,177.2c16.4,2.1,29.3,3.7,46.3,5.8c3,53.5,1,106.6,1.3,159.5
			c0.4,52.9,0,105.8,0,158.7c-29.9,0-59.8,0-89.8,0c0-240.3,0-480.7,0-722C218,32.2,398.7,32.2,579.5,32.2z"/>
		<path class="st0" d="M669.4,754.2c0-105.5,0-211.1,0-317.9c17.2-2.2,30.1-3.9,45.4-5.9c0-58,0-115,0-176.7c-22.1,0-42.6,0-63.2,0
			c-20.7,0-41.4,0-62,0c-0.6-1.5-1.3-3.1-1.9-4.6c3.8-3.7,7.3-7.8,11.4-11.2c31.4-26.5,55.7-57.4,64-99
			c10.4-51.9-16.4-93-67.9-103.5c-4.2-0.8-8.2-2.2-12.4-3.3c58.8,0,117.7,0,176.5,0c0,240.7,0,481.3,0,722
			C729.3,754.2,699.3,754.2,669.4,754.2z"/>
		<path class="st0" d="M354.9,707.7c-64,0-122.3,0-179.6,0c-8.5-15.2-9.4-275.7-1-294.7c57.7,0,116.4,0,180,0
			C355.7,511.1,354.8,608,354.9,707.7z"/>
		<path class="st0" d="M447.2,412.4c58.2,0,116.6,0,173.9,0c8.5,15,9.5,275.4,1.2,294.7c-57.7,0-116.4,0-174.5,0
			C439.7,692.7,438.6,432.4,447.2,412.4z"/>
		<path class="st0" d="M352.6,389.5c-76.8,0-150.5,0-226.5,0c0-31.3,0-60.4,0-91.9c76.1,0,150.1,0,226.5,0
			C352.6,328.7,352.6,357.9,352.6,389.5z"/>
		<path class="st0" d="M444.3,297.6c76,0,150,0,226.3,0c0,31.1,0,59.8,0,87.9c-14,7.5-204,9.1-226.3,1.8
			C444.3,359,444.3,329.8,444.3,297.6z"/>
		<path class="st0" d="M436.5,254.8c3.9-12.9,5.8-19.9,8.1-26.7c14.6-42.6,37.2-80.7,68-113.3C530.2,96.2,552,83.3,578.8,83
			c25.2-0.3,41.3,18,37,42.9c-4.5,26.8-16.6,50.9-38.6,66.4c-29.5,20.8-60.8,39.5-92.9,56C472,254.7,455.2,252.6,436.5,254.8z"/>
		<path class="st0" d="M331.2,234.1c-44.5-9.7-85.2-25.1-116-59.3c-5.6-6.1-9.4-14.3-12.5-22.1c-5.5-14.1-6.5-28.7,4.6-40.6
			c11.5-12.4,26.6-12.4,41.6-8c6,1.8,12.2,4.5,17.1,8.4C304.1,143.6,321.8,186,331.2,234.1z"/>
	</g>
</g>
</svg>
