<?xml version="1.0" encoding="utf-8"?>
<!-- Generator: Adobe Illustrator 22.0.1, SVG Export Plug-In . SVG Version: 6.00 Build 0)  -->
<svg version="1.1" id="Calque_1" xmlns="http://www.w3.org/2000/svg" xmlns:xlink="http://www.w3.org/1999/xlink" x="0px" y="0px"
	 viewBox="0 0 683.9 410.3" style="enable-background:new 0 0 683.9 410.3;" xml:space="preserve">
<style type="text/css">
	.st0{clip-path:url(#SVGID_2_);fill:#4E869E;}
	.st1{clip-path:url(#SVGID_2_);fill:#00A0DC;}
	.st2{clip-path:url(#SVGID_2_);fill:#005B9E;}
	.st3{clip-path:url(#SVGID_4_);fill:url(#SVGID_5_);}
	.st4{clip-path:url(#SVGID_7_);fill:#005B9E;}
</style>
<g>
	<defs>
		<rect id="SVGID_1_" x="-70" y="-84" width="841.9" height="595.3"/>
	</defs>
	<clipPath id="SVGID_2_">
		<use xlink:href="#SVGID_1_"  style="overflow:visible;"/>
	</clipPath>
	<path class="st0" d="M342.9,194.6h-0.1c2.5,0.2,4.3,1,5.2,2.5c1.1,1.7,1.7,4.3,1.7,7.7c0,0.3,0,1.4-0.1,3.2
		c-0.1,1.8-0.2,4.1-0.4,6.8c-0.2,2.7-0.3,5.8-0.5,9.1c-0.2,3.4-0.4,6.8-0.6,10.3c-0.2,3.5-0.4,7-0.6,10.3c-0.2,3.4-0.4,6.4-0.5,9.1
		c-0.2,2.7-0.3,5-0.4,6.8c-0.1,1.8-0.2,2.9-0.2,3.3c-0.1,0.5-0.2,0.9-0.3,1.1c-0.2,0.2-0.5,0.4-1,0.4h-4.4c-0.2,0-0.4,0-0.6,0
		c0.6,0.1,1.3,0.1,2.1,0.1h4.4c0.5,0,0.8-0.1,1-0.4c0.2-0.2,0.3-0.6,0.3-1.1c0.1-0.4,0.1-1.5,0.2-3.3c0.1-1.8,0.2-4.1,0.4-6.8
		c0.2-2.7,0.3-5.8,0.5-9.1c0.2-3.4,0.4-6.8,0.6-10.3c0.2-3.5,0.4-7,0.6-10.3c0.2-3.4,0.4-6.4,0.5-9.1c0.2-2.7,0.3-5,0.4-6.8
		s0.1-2.9,0.1-3.2c0-3.4-0.6-6-1.7-7.7C348.3,195.4,346.1,194.6,342.9,194.6"/>
	<path class="st0" d="M366.1,248.9c-0.2,2.6-0.3,4.9-0.4,7c-0.1,2-0.2,3.7-0.3,5.1c-0.1,1.3-0.2,2.1-0.2,2.4
		c-0.1,0.5-0.2,0.9-0.3,1.1c-0.2,0.2-0.5,0.3-1,0.3h-4c-0.2,0-0.4,0-0.7,0c0.7,0.1,1.4,0.1,2.1,0.1h4c0.5,0,0.8-0.1,1-0.3
		c0.2-0.2,0.3-0.6,0.3-1.1c0-0.3,0.1-1.1,0.2-2.4c0.1-1.3,0.2-3,0.3-5.1c0.1-2.1,0.2-4.4,0.4-7c0.2-2.5,0.3-5.2,0.5-8
		c-0.5-0.1-1-0.2-1.4-0.3C366.4,243.6,366.2,246.3,366.1,248.9"/>
	<path class="st0" d="M369.2,218c0.1-3.2,0.3-5.9,0.4-8.1c0.9-0.1,1.8-0.2,2.6-0.3c0.8-0.1,1.5-0.1,2.1-0.1c-0.4,0-0.9-0.1-1.4-0.1
		c-0.6,0-1.4,0-2.2,0.1c-0.8,0.1-1.7,0.2-2.6,0.3c-0.1,2.3-0.2,5-0.4,8.1c-0.1,3.2-0.3,6.5-0.5,10.1c1.9,0.5,3.5,0.8,4.9,0.8
		c0.1,0,0.1,0,0.2,0c-1.1-0.1-2.3-0.3-3.6-0.7C368.9,224.5,369.1,221.1,369.2,218"/>
	<path class="st0" d="M392.6,230c1.6-4,2.5-8.5,2.5-13.6c0-3.3-0.4-6.3-1.1-9c-0.7-2.7-1.8-4.9-3.4-6.8c-1.5-1.9-3.5-3.3-6-4.4
		c-2.1-0.9-4.5-1.4-7.3-1.5c2.2,0.2,4.2,0.7,5.9,1.4c2.5,1,4.4,2.5,6,4.4c1.5,1.9,2.6,4.2,3.4,6.8c0.7,2.7,1.1,5.7,1.1,9
		c0,5.1-0.8,9.6-2.5,13.6c-1.7,4-4.3,7-7.9,9.1l6.7,11.7c1.2,2.2,2.2,3.9,2.8,5.1c0.6,1.2,1,2.1,1,2.7c0,0.5-0.2,1.1-0.7,1.9
		c-0.5,0.8-1.1,1.6-2,2.4c-0.9,0.8-1.9,1.5-3.2,2.1c-1.2,0.6-2.5,0.8-3.9,0.9c0.4,0.1,0.8,0.1,1.2,0.1c1.5,0,2.9-0.3,4.2-0.9
		c1.3-0.6,2.3-1.3,3.2-2.1c0.9-0.8,1.5-1.6,2-2.4c0.5-0.8,0.7-1.4,0.7-1.9c0-0.6-0.3-1.5-1-2.7c-0.6-1.2-1.6-2.9-2.8-5.1l-6.7-11.7
		C388.3,237,390.9,234,392.6,230"/>
	<path class="st0" d="M366.5,269c0.1,0,0.1-0.1,0.1-0.1c-0.4,0.1-0.8,0.1-1.3,0.1h-0.6c-51,22-95.8,29.9-134,29.9
		c-5.9,0-11.5-0.2-17.1-0.5c6,0.4,12.2,0.6,18.5,0.6C270.4,299,315.4,291.1,366.5,269"/>
	<path class="st0" d="M399.7,97.7c-0.7,2.9-4,3.6-6.9,4.4c-3,0.6-5.9,0.8-5.8,0.8c-108.8,11.5-201.3,71-240.6,100
		c-12.2,9-19.3,15-20.2,15.8c-4.3,6.6-5.7,13.3-5.7,19.6c0,6.4,1.5,12.1,3.1,16.3c1.2,3.4,2.5,5.7,2.9,6.4
		c35.1,17.8,66.4,25.1,93,26.6c-26.3-1.7-57.1-9-91.6-26.5c-0.4-0.7-1.7-3-2.9-6.4c-1.5-4.2-3.1-9.9-3.1-16.3c0-6.2,1.4-13,5.7-19.6
		c0.9-0.8,8-6.8,20.2-15.8c39.4-29,131.8-88.5,240.6-100c0,0,2.8-0.2,5.8-0.8c2.9-0.7,6.3-1.5,6.9-4.4c0-0.3-0.1-0.6-0.2-0.8
		c-0.2-0.2-0.5-0.3-0.8-0.3c0,0-0.3,0-0.9,0c0.1,0.1,0.2,0.1,0.3,0.2C399.6,97.1,399.7,97.4,399.7,97.7"/>
	<path class="st0" d="M331.5,203.3c-0.2,3-0.4,6.5-0.6,10.4c-0.3,4-0.5,8.2-0.8,12.8c-0.3,4.5-0.5,8.8-0.8,12.8
		c-0.3,4.1-0.5,7.7-0.6,10.9c-0.2,3.3-0.2,5.5-0.2,6.9c0,3.7,1,6.7,3,8.9c2.1,2.3,5.3,3.5,9.4,3.5h0.2c-3.5-0.2-6.3-1.3-8.2-3.4
		c-2-2.2-3-5.2-3-8.9c0-1.4,0.1-3.6,0.2-6.9c0.2-3.2,0.4-6.8,0.6-10.9c0.3-4,0.5-8.3,0.8-12.8c0.3-4.5,0.5-8.8,0.8-12.8
		c0.3-4,0.5-7.4,0.6-10.4c0.2-3,0.2-5,0.2-5.9c0-1,0-2.8-0.4-2.8c-0.4,0-0.9,0-1.3,0c0.2,0.4,0.3,1.8,0.3,2.7
		C331.7,198.3,331.6,200.3,331.5,203.3"/>
	<path class="st0" d="M414.1,246.9c-1.6-2.7-2.4-7-2.4-12.8c0-1.3,0.1-2.7,0.2-4.4c0.1-1.6,0.3-3.3,0.6-5.1c0.3-1.8,0.8-3.5,1.3-5.1
		c0.6-1.7,1.3-3.2,2.2-4.5c0.9-1.3,2.1-2.4,3.4-3.2c1.3-0.8,2.9-1.2,4.7-1.2c-0.4-0.1-0.9-0.1-1.3-0.1c-1.9,0-3.5,0.4-4.8,1.2
		c-1.4,0.8-2.5,1.9-3.4,3.2c-0.9,1.3-1.7,2.9-2.2,4.5c-0.6,1.7-1,3.4-1.3,5.1c-0.3,1.8-0.5,3.5-0.6,5.1c-0.1,1.6-0.2,3.1-0.2,4.4
		c0,5.8,0.8,10.1,2.4,12.8c1.6,2.7,3.9,4,6.9,4c0,0,0.1,0,0.1,0C417.4,250.5,415.5,249.2,414.1,246.9"/>
	<path class="st0" d="M441.3,203.3c1.8,2.5,3,5.6,3.8,9.2c0.8,3.6,1.2,7.7,1.2,12.4c0,2.6-0.2,5.4-0.4,8.4c-0.3,3-0.8,6-1.6,9.1
		c-0.8,3-1.8,6-3.2,8.8c-1.3,2.8-3.1,5.3-5.2,7.5c-2.1,2.2-4.6,3.9-7.5,5.2c-2.9,1.3-6.4,2-10.4,2c-0.7,0-1.3-0.1-2-0.1
		c1.1,0.1,2.2,0.2,3.4,0.2c4,0,7.5-0.7,10.4-2c2.9-1.3,5.4-3.1,7.5-5.2c2.1-2.2,3.8-4.7,5.2-7.5c1.3-2.8,2.4-5.8,3.2-8.8
		c0.8-3,1.3-6.1,1.6-9.1c0.3-3,0.4-5.8,0.4-8.4c0-4.6-0.4-8.7-1.2-12.4c-0.8-3.6-2.1-6.7-3.8-9.2c-1.8-2.5-4-4.5-6.8-5.8
		c-2.4-1.1-5.1-1.7-8.3-1.9c2.6,0.3,4.9,0.9,6.8,1.8C437.3,198.8,439.6,200.7,441.3,203.3"/>
	<path class="st0" d="M468.8,177.3c3.2,23.5,4.1,50.4-2.2,73.6c-8.6,31.6-34.6,52.9-63.8,65.3c-18,7.6-37.3,12.3-56.6,15
		c-5.5,0.8-12.3,2.4-18.5,2.1c6.6,0.6,14-1.2,19.9-2c19.4-2.7,38.6-7.4,56.6-15c29.2-12.3,55.2-33.6,63.8-65.3
		c6.3-23.2,5.3-50.1,2.2-73.6c-6.3-46.8-15.1-58.7-33.5-93.7c-0.5,0-1-0.1-1.5-0.1C453.8,118.7,462.5,130.5,468.8,177.3"/>
	<path class="st0" d="M494.6,206.9c0,0-3.9,0.1-4.5,9.6c0,0-6.4,102.5-6.9,105.6c0,0-0.4,9.3-5.3,10.8c0,0.2,0,0.3,0,0.3
		c6.2,0,6.7-11.1,6.7-11.1c0.5-3.1,6.9-105.6,6.9-105.6c0.5-9.5,4.5-9.6,4.5-9.6c3.1-0.8,6.7-1,10.1-0.8
		C502.2,205.9,498.1,205.9,494.6,206.9"/>
	<path class="st0" d="M544.7,205.1c-12.5-7.7-26.4-10.5-38.2-11.3c11.5,0.9,24.8,3.8,36.8,11.2c0,0,8.5,5,3.9,11.7
		c0,0-33.8,38.9-53,47.1c0.2,0.4,0.4,0.5,0.4,0.5c19-7.2,54.1-47.5,54.1-47.5C553.2,210,544.7,205.1,544.7,205.1"/>
	<path class="st0" d="M562.6,104.6c0.3,2.5,0.2,5.5-0.8,8.9c-0.1,0.2-0.2,0.4-0.4,0.5c0.2,0.1,0.3,0.1,0.3,0.1
		c0.2,0.1,0.5,0.2,0.7,0.1c0.1,0,0.2,0,0.2-0.1c0.3-0.1,0.6-0.4,0.7-0.7c1-3.3,1.1-6.2,0.8-8.6c-0.5-0.4-1.1-0.9-1.6-1.3
		C562.4,104,562.5,104.3,562.6,104.6"/>
	<path class="st1" d="M563.3,73.2c-61.6-33.7-143.3-52.3-230.2-52.3c-55.8,0-109.4,7.7-157,22.1c45.2-13.2,96.8-20.7,151.6-20.7
		c178.2,0,322.6,79.2,322.6,176.9c0,97.7-144.4,176.9-322.6,176.9c-158.3,0-290-62.5-317.4-144.9c10.8,37.8,42.8,72.4,92.6,99.7
		c61.6,33.7,143.3,52.3,230.2,52.3c86.9,0,168.6-18.6,230.2-52.3C625.6,296.6,660,250.9,660,202C660,153.1,625.6,107.4,563.3,73.2"
		/>
	<path class="st1" d="M562.8,99.4c-0.8-0.6-1.5-1.2-2.3-1.8c-2.1-1.6-4.2-3.2-6.3-4.7c-1.2-0.8-2.3-1.7-3.5-2.5
		c-53.3-37.1-133.4-60.7-222.9-60.7c-160.6,0-290.8,75.9-290.8,169.5c0,93.6,130.2,169.5,290.8,169.5c47.8,0,92.9-6.7,132.6-18.6
		c-38.4,11-81.6,17.2-127.2,17.2c-158,0-286.5-74.1-286.5-165.2c0-91.1,128.5-165.2,286.5-165.2c77.1,0,147.2,17.7,198.8,46.3
		c0.5,0.3,1,0.6,1.5,0.8c10.6,6,20.3,12.4,29.2,19.2c0.5,0.4,1.1,0.8,1.6,1.3c24.4,19.2,41.9,41.5,50.1,65.7
		C606.5,144,588.5,120,562.8,99.4"/>
	<path class="st2" d="M339.7,265.5c-3,0-5.1-0.7-6.4-2.2c-1.3-1.5-1.9-3.6-1.9-6.3c0-1.3,0.1-3.6,0.2-6.8c0.2-3.2,0.4-6.9,0.6-11
		c0.3-4.1,0.5-8.5,0.8-13.1c0.3-4.6,0.5-8.9,0.8-13c0.3-4.1,0.5-7.6,0.6-10.7c0.2-3.1,0.2-5.2,0.2-6.3c0-1,0.4-1.5,1.3-1.5h4.4
		c3.2,0,5.4,0.9,6.6,2.6c1.1,1.7,1.7,4.3,1.7,7.7c0,0.3,0,1.4-0.1,3.2c-0.1,1.8-0.2,4.1-0.4,6.8c-0.2,2.7-0.3,5.8-0.5,9.1
		c-0.2,3.4-0.4,6.8-0.6,10.3c-0.2,3.5-0.4,7-0.6,10.3c-0.2,3.4-0.4,6.4-0.5,9.1c-0.2,2.7-0.3,5-0.4,6.8c-0.1,1.8-0.2,2.9-0.2,3.3
		c-0.1,0.5-0.2,0.9-0.3,1.1c-0.2,0.2-0.5,0.4-1,0.4H339.7z"/>
	<path class="st2" d="M371.9,209.3c-0.6,0-1.4,0-2.2,0.1c-0.8,0.1-1.7,0.2-2.6,0.3c-0.1,2.3-0.2,5-0.4,8.1
		c-0.1,3.2-0.3,6.5-0.5,10.1c1.9,0.5,3.5,0.8,4.9,0.8c1.6,0,3-0.4,4-1.2c1-0.8,1.9-1.7,2.4-2.9c0.6-1.1,1-2.4,1.2-3.7
		c0.2-1.3,0.3-2.5,0.3-3.5c0-2.7-0.5-4.7-1.6-6.1C376.4,210,374.5,209.3,371.9,209.3 M358.9,264.9c-3,0-5.2-0.7-6.4-2.2
		c-1.3-1.5-1.9-3.6-1.9-6.5c0-0.8,0-2.1,0.1-4c0.1-1.9,0.2-4.1,0.4-6.6c0.2-2.5,0.3-5.3,0.5-8.3c0.2-3,0.4-6.1,0.6-9.2
		c0.4-6.6,0.7-11.9,0.9-16c0.2-4.1,0.3-7.3,0.4-9.7c0.2-2.9,0.3-4.8,0.5-5.6c0.2-0.8,0.5-1.2,1-1.2c1.7,0,3.3-0.1,5.1-0.1
		c1.7-0.1,3.4-0.2,5-0.3c1.6-0.1,3.1-0.2,4.5-0.3c1.4-0.1,2.7-0.1,3.8-0.1c3.4,0,6.3,0.5,8.8,1.6c2.5,1,4.4,2.5,6,4.4
		c1.5,1.9,2.6,4.2,3.4,6.8c0.7,2.7,1.1,5.7,1.1,9c0,5.1-0.8,9.6-2.5,13.6c-1.7,4-4.3,7-7.9,9.1l6.7,11.7c1.2,2.2,2.2,3.9,2.8,5.1
		c0.6,1.2,1,2.1,1,2.7c0,0.5-0.2,1.1-0.7,1.9c-0.5,0.8-1.1,1.6-2,2.4c-0.9,0.8-1.9,1.5-3.2,2.1c-1.2,0.6-2.6,0.9-4.2,0.9
		c-1.7,0-3.2-0.7-4.4-2c-1.3-1.4-2.4-3.2-3.4-5.4c-1-2.2-1.8-4.8-2.6-7.8c-0.7-2.9-1.4-6-2-9.2c-1.9-0.1-3.5-0.4-4.7-0.7
		c-0.2,2.9-0.3,5.6-0.5,8.2c-0.2,2.6-0.3,4.9-0.4,7c-0.1,2-0.2,3.7-0.3,5.1c-0.1,1.3-0.2,2.1-0.2,2.4c-0.1,0.5-0.2,0.9-0.3,1.1
		c-0.2,0.2-0.5,0.3-1,0.3H358.9z"/>
	<path class="st2" d="M145.3,203c39.4-29,131.8-88.5,240.6-100c0,0,2.8-0.2,5.8-0.8c2.9-0.7,6.3-1.5,6.9-4.4c0-0.3-0.1-0.6-0.2-0.8
		c-0.2-0.2-0.5-0.3-0.8-0.3c-0.1,0-178,3.6-317.8,133.1c-0.1,0.1-4.7,4.3-4.8,9.9c0,2.5,1,5.2,3.8,7.6c0.1,0.1,53.5,51.8,151,51.8
		c38.2,0,83.2-7.9,134.3-30c0,0,0.1-0.1,0.1-0.1c-0.4,0.1-0.8,0.1-1.3,0.1h-4c-4.3,0-12.3,0.5-14.8,0.5h-4.4c-4.2,0-7.4-1.2-9.4-3.5
		c-2-2.2-3-5.2-3-8.9c0-1.4,0.1-3.6,0.2-6.9c0.2-3.2,0.4-6.8,0.6-10.9c0.3-4,0.5-8.3,0.8-12.8c0.3-4.5,0.5-8.8,0.8-12.8
		c0.3-4,0.5-7.4,0.6-10.4c0.2-3,0.2-5,0.2-5.9c0-1,0-2.8-0.4-2.8c-26.3,0-68,3.1-97.2,20.3c-0.3,0.2-0.5,0.5-0.5,0.8
		c0,0.3,0.1,0.6,0.3,0.9c0.1,0.1,2.6,2.4,7.3,2.4c0.5,0,0.9,0,1.4-0.1c0.1,0,38.3-6,60.1-6c6.8-0.1,13.2,0.8,14.6,1.9
		c0.3,0.8,1.5,2.9,1.9,7.2c0.5,5.5-2.1,32-4.7,42.1c-0.5,0.8-1.7,2.5-4.8,4.3C297.3,275,269.4,288,229,288
		c-28.7,0-63.8-6.6-103.8-26.9c-0.4-0.7-1.6-3-2.9-6.4c-1.5-4.2-3.1-9.9-3.1-16.3c0-6.2,1.4-13,5.7-19.6
		C125.9,218,133,212,145.3,203"/>
	<path class="st2" d="M421.9,210.5c-1.9,0-3.5,0.4-4.8,1.2c-1.4,0.8-2.5,1.9-3.4,3.2c-0.9,1.3-1.7,2.9-2.2,4.5
		c-0.6,1.7-1,3.4-1.3,5.1c-0.3,1.8-0.5,3.5-0.6,5.1c-0.1,1.6-0.2,3.1-0.2,4.4c0,5.8,0.8,10.1,2.4,12.8c1.6,2.7,3.9,4,6.9,4
		c2.5,0,4.5-0.9,6-2.8c1.5-1.9,2.8-4.2,3.6-6.8c0.9-2.7,1.5-5.4,1.8-8.3c0.3-2.9,0.5-5.3,0.5-7.3c0-4.7-0.7-8.4-2-11.1
		C427.2,211.9,425,210.5,421.9,210.5 M423.5,195.6c3.9,0,7.2,0.7,10,2c2.8,1.3,5,3.2,6.8,5.8c1.8,2.5,3,5.6,3.8,9.2
		c0.8,3.6,1.2,7.7,1.2,12.4c0,2.6-0.1,5.4-0.4,8.4c-0.3,3-0.8,6-1.6,9.1c-0.8,3-1.8,6-3.2,8.8c-1.3,2.8-3.1,5.3-5.2,7.5
		c-2.1,2.2-4.6,3.9-7.6,5.2c-2.9,1.3-6.4,2-10.4,2c-4.4,0-8.1-0.8-11-2.4c-2.9-1.6-5.2-3.8-6.9-6.5c-1.7-2.7-3-5.9-3.7-9.7
		c-0.7-3.7-1.1-7.7-1.1-11.9c0-5,0.5-9.9,1.4-14.7c1-4.8,2.6-9,4.8-12.7c2.3-3.7,5.3-6.7,9-9C413.4,196.8,418,195.6,423.5,195.6"/>
</g>
<g>
	<defs>
		<path id="SVGID_3_" d="M370.7,71.3C298.2,74,233.4,82.7,229,83.3l-0.2,0c-0.3,0-0.6,0.2-0.8,0.5c-0.2,0.3-0.2,0.6-0.1,0.9
			c1.9,4.9,7.9,4.4,10.3,4.1c0.7-0.1,1.2-0.2,1.2-0.2c75.7-8.7,135.7-9.2,182.4-6c0.4,0.8,0.9,1.7,1.6,3
			c15.7,29.1,25.2,61.5,28.3,94.5c2.6,27.2,5.2,63.4-11.7,86.4c-11.7,16-28.1,28.4-45.6,37.5c-13.5,7-27.9,12.2-42.6,15.9
			c-9,2.3-18.2,4.1-27.5,5.4c-7.7,1.1-16.4,2.2-4.3,6.7c7.5,2.8,17.6,0.1,25.1-0.9c19.4-2.7,38.6-7.4,56.6-15
			c29.2-12.3,55.2-33.6,63.8-65.3c6.3-23.2,5.3-50.1,2.2-73.6c-6.3-46.8-15.1-58.7-33.6-93.7c20.6,1.8,38.4,4.4,53.5,7.3
			c25.3,4.8,43.2,10.5,54.7,15c11.6,4.5,16.7,7.7,16.7,7.7c0.2,0.1,0.5,0.2,0.7,0.1c0.1,0,0.2,0,0.2-0.1c0.3-0.1,0.6-0.4,0.7-0.7
			c1-3.4,1.1-6.4,0.8-8.9c-0.7-5-3.1-7.8-3.2-7.9l-0.2-0.2c-28.9-19.8-87.8-25.6-148-25.6C397,70.5,383.7,70.8,370.7,71.3"/>
	</defs>
	<clipPath id="SVGID_4_">
		<use xlink:href="#SVGID_3_"  style="overflow:visible;"/>
	</clipPath>
	
		<linearGradient id="SVGID_5_" gradientUnits="userSpaceOnUse" x1="-70" y1="510.6366" x2="-69" y2="510.6366" gradientTransform="matrix(216.5822 0 0 -216.5822 15506.0371 110797.6016)">
		<stop  offset="0" style="stop-color:#0060A2"/>
		<stop  offset="0.3517" style="stop-color:#0060A2"/>
		<stop  offset="1" style="stop-color:#00A0DC"/>
	</linearGradient>
	<rect x="227.8" y="70.5" class="st3" width="334.3" height="264.5"/>
</g>
<g>
	<defs>
		<rect id="SVGID_6_" x="-70" y="-84" width="841.9" height="595.3"/>
	</defs>
	<clipPath id="SVGID_7_">
		<use xlink:href="#SVGID_6_"  style="overflow:visible;"/>
	</clipPath>
	<path class="st4" d="M475,195.8c0,0,37.3-9,67.2,9.3c0,0,8.5,5,3.9,11.7c0,0-35,40.3-54.1,47.5c0,0-3.9-3.1,6.9-12.7
		c0,0,23.7-25.1,25.2-33.3c0,0,1.5-7.2-4.1-9.3c0,0-16-4.8-26.4-2.1c0,0-3.9,0.1-4.5,9.6c0,0-6.4,102.5-6.9,105.6
		c0,0-0.5,11.1-6.7,11.1C475.6,333.3,471.9,243.2,475,195.8"/>
</g>
</svg>
