<?xml version="1.0" encoding="utf-8"?>
<!-- Generator: Adobe Illustrator 22.0.1, SVG Export Plug-In . SVG Version: 6.00 Build 0)  -->
<svg version="1.1" id="Calque_1" xmlns="http://www.w3.org/2000/svg" xmlns:xlink="http://www.w3.org/1999/xlink" x="0px" y="0px"
	 viewBox="0 0 800 800" style="enable-background:new 0 0 800 800;" xml:space="preserve">
<style type="text/css">
	.st0{fill:transparent;}
</style>
<g>
	<g>
		<path class="st0" d="M29.2,771.7c0-247.5,0-495,0-742.5c247.5,0,495,0,742.5,0c0,247.5,0,495,0,742.5
			C524.2,771.7,276.7,771.7,29.2,771.7z M221.1,145.2c-0.8-0.4-1.5-0.7-2.3-1.1c-55.6-27.8-111.2-55.6-166.8-83.4
			c-11.2-5.6-22.2,1.2-22.2,13.8c0,185.8,0,371.6,0,557.4c0,6.8,2.9,11.6,9,14.6c57.9,28.9,115.9,57.9,173.7,86.9c6,3,11.4,3,17.4,0
			c55.5-27.9,111-55.7,166.5-83.5c1.2-0.6,2.2-0.9,3.7-0.2c60.7,28.1,121.3,56.2,182,84.3c5.1,2.4,10.1,2.4,15.1-0.4
			c6.3-3.5,12.6-6.9,18.9-10.3c46.7-25.5,93.4-51,140.2-76.4c6.7-3.6,9.8-8.7,9.8-16.4c-0.1-118.3-0.1-236.7-0.1-355
			c0-66.7,0-133.4,0-200.1c0-2.1-0.1-4.4-0.7-6.4c-2.8-9.1-12.8-12.7-21.7-8c-16.4,8.9-32.8,17.8-49.2,26.8
			c-34.6,18.8-69.2,37.7-103.9,56.5c-0.8,0.4-2.2,0.5-3.1,0.1c-24.1-11-48.1-22-72.1-33.1c-36.7-16.9-73.4-33.7-110.1-50.7
			c-5.4-2.5-10.3-2.3-15.5,0.3c-33.1,16.6-66.2,33.2-99.4,49.7C267.1,122.2,244.1,133.7,221.1,145.2z"/>
		<path d="M221.1,145.2c23-11.5,46-23,69-34.5c33.1-16.6,66.3-33.1,99.4-49.7c5.2-2.6,10.1-2.8,15.5-0.3
			c36.7,17,73.4,33.8,110.1,50.7c24,11,48.1,22.1,72.1,33.1c0.8,0.4,2.3,0.3,3.1-0.1c34.7-18.8,69.3-37.6,103.9-56.5
			c16.4-8.9,32.8-17.9,49.2-26.8c8.8-4.8,18.9-1.1,21.7,8c0.6,2,0.7,4.3,0.7,6.4c0,66.7,0,133.4,0,200.1c0,118.3,0,236.7,0.1,355
			c0,7.7-3.1,12.7-9.8,16.4c-46.8,25.4-93.5,50.9-140.2,76.4c-6.3,3.4-12.6,6.8-18.9,10.3c-5,2.7-9.9,2.8-15.1,0.4
			c-60.7-28.1-121.3-56.2-182-84.3c-1.4-0.7-2.4-0.4-3.7,0.2c-55.5,27.8-111,55.6-166.5,83.5c-6,3-11.4,3-17.4,0
			c-57.9-29.1-115.8-58-173.7-86.9c-6.1-3.1-9-7.8-9-14.6c0-185.8,0-371.6,0-557.4c0-12.6,11-19.4,22.2-13.8
			c55.6,27.8,111.2,55.6,166.8,83.4C219.5,144.5,220.3,144.8,221.1,145.2z M221.1,704.6c0.8-0.4,1.5-0.7,2.1-1
			c21.9-10.9,43.7-21.9,65.6-32.8c33.7-16.9,67.5-33.7,101.2-50.6c4.8-2.4,9.5-2.7,14.4-0.4c7.5,3.5,15,6.9,22.5,10.4
			c45.9,21.1,91.9,42.3,137.9,63.4c8,3.7,16,7.3,24,11c49.3-26.9,98.5-53.7,147.6-80.5c0-175.3,0-350.5,0-525.8
			c-0.6,0.3-1.1,0.5-1.5,0.7c-23,12.5-46.1,25.1-69.1,37.6c-23.1,12.6-46.2,25.2-69.3,37.7c-4.4,2.4-9,2.6-13.6,0.5
			c-45.3-21-90.7-41.9-136-62.9c-16.2-7.5-32.3-14.9-48.5-22.4c-0.7,0.3-1.4,0.7-2.1,1c-55.6,27.9-111.3,55.8-166.9,83.7
			c-5.6,2.8-10.8,2.8-16.3,0C162.6,149,112.1,123.8,61.8,98.6c-0.8-0.4-1.6-0.7-2.6-1.2c0,175.6,0,350.9,0,526.2
			C113.2,650.7,167.1,677.6,221.1,704.6z"/>
		<path class="st0" d="M221.1,704.6c-54-27-107.9-54-161.9-80.9c0-175.4,0-350.6,0-526.2c1,0.4,1.8,0.8,2.6,1.2
			c50.4,25.2,100.8,50.4,151.2,75.6c5.6,2.8,10.8,2.8,16.3,0c55.6-28,111.2-55.8,166.9-83.7c0.7-0.3,1.4-0.7,2.1-1
			c16.2,7.5,32.4,15,48.5,22.4c45.3,21,90.7,42,136,62.9c4.6,2.1,9.2,1.9,13.6-0.5c23.1-12.6,46.2-25.1,69.3-37.7
			c23-12.5,46.1-25.1,69.1-37.6c0.4-0.2,0.8-0.4,1.5-0.7c0,175.3,0,350.4,0,525.8c-49.1,26.8-98.3,53.6-147.6,80.5
			c-8.1-3.7-16-7.4-24-11c-46-21.1-91.9-42.3-137.9-63.4c-7.5-3.4-15-6.9-22.5-10.4c-4.9-2.3-9.6-2-14.4,0.4
			c-33.7,16.9-67.4,33.8-101.2,50.6c-21.9,10.9-43.7,21.9-65.6,32.8C222.5,703.9,221.9,704.2,221.1,704.6z M227.3,559.1
			c0.9-0.7,1.5-1.2,2.1-1.8c10.7-10.6,21.3-21.3,32-32c7.2-7.3,5.2-19.2-3.9-23.6c-5.9-2.9-13.1-1.6-18.1,3.4
			c-10.4,10.4-20.8,20.8-31.1,31.1c-0.6,0.6-1.2,1.1-1.9,1.8c-0.7-0.7-1.3-1.2-1.9-1.8c-10.5-10.5-21.1-21.1-31.7-31.6
			c-6.3-6.2-15.7-6.2-21.7,0c-5.7,5.8-5.4,15,0.7,21.1c10.5,10.5,21.1,21.1,31.6,31.6c0.6,0.6,1.1,1.2,2,2.1
			c-0.8,0.6-1.5,1.1-2.1,1.7c-10.4,10.4-20.8,20.8-31.2,31.1c-4.2,4.1-5.9,9.1-4.4,14.8c2.9,11.3,16.6,15.1,25,6.8
			c10.7-10.5,21.2-21.2,31.8-31.8c0.6-0.6,1.2-1.1,2.1-2c0.6,0.8,0.9,1.4,1.4,1.9c10.7,10.7,21.4,21.5,32.1,32.1
			c5.8,5.7,14.8,5.6,20.7,0c5.7-5.4,6.1-14.5,0.8-20.5c-2.1-2.4-4.5-4.7-6.8-7C245.8,577.6,236.8,568.6,227.3,559.1z M326.2,308.9
			c0.4,0,0.5,0,0.7-0.1c0.4-0.1,0.7-0.2,1.1-0.4c8.6-3.9,17.3-7.7,21.4-17.1c0.3-0.6,0.9-1.1,1.1-1.8c0.2-0.9,0.5-1.9,0.2-2.8
			c-1-3.2-2.1-6.3-3.4-9.3c-0.4-0.8-1.3-1.7-2.2-2c-3.1-1.1-6.3-2-9.5-2.7c-1-0.3-2.4-0.3-3.3,0.1c-8.6,4-17.2,8.1-21.3,17.6
			c-0.2,0.4-0.6,0.8-0.7,1.2c-0.2,0.8-0.5,1.8-0.2,2.5c1.1,3.2,2.3,6.4,3.5,9.5c0.2,0.6,0.5,1.4,0.9,1.5
			C318.4,306.6,322.4,307.7,326.2,308.9z M352.7,520.2c-1.1,3.8-2.3,7.4-3.3,11c-0.2,0.7-0.2,1.6,0.2,2.1c2,3.1,4.2,6.1,6.3,9.1
			c0.4,0.6,1.2,1,1.9,1.2c7.2,2,14.4,3.6,21.9,2.1c1.7-0.3,3.4-0.4,5-1c1-0.4,2.2-1.1,2.7-2c1.8-3.3,4.7-6.7,4.7-10.1
			c0-3.5-2.9-7-4.7-10.4c-0.5-0.9-1.4-1.8-2.3-2.3c-6.1-3.3-12.8-3.5-19.5-4.3c-0.5-0.1-1.1,0.1-1.6,0.2
			C360.3,517.3,356.6,518.7,352.7,520.2z M320.9,546.4c-1-4-1.9-7.8-2.9-11.6c-0.2-0.6-0.6-1.4-1.1-1.6c-3.6-1.4-7.3-2.8-11-4.1
			c-0.5-0.2-1.3-0.2-1.8,0.1c-5.6,2.4-11.3,4.9-16.9,7.4c-0.3,0.1-0.6,0.5-0.8,0.8c-2.2,2.9-4.4,5.8-6.4,8.8
			c-0.4,0.6-0.6,1.7-0.4,2.5c0.8,3.3,1.7,6.6,2.8,9.8c0.3,0.9,1.3,1.9,2.2,2.3c2.6,1.2,5.2,2.3,8,3.1c1.4,0.4,3.3,0.7,4.6,0.2
			c5.3-2.1,10.4-4.6,15.6-6.9c0.5-0.2,0.8-0.7,1.1-1.1C316.1,552.8,318.4,549.7,320.9,546.4z M212.8,301.8
			c-0.6-4.3-1.1-8.1-1.7-11.9c-0.2-1-0.7-2.3-1.5-2.9c-3.6-2.9-7.4-5.5-11-8.4c-2.2-1.8-4.6-2.6-7.4-3c-2.3-0.3-4.5-0.9-6.8-1.1
			c-1.1-0.1-2.4,0.3-3.2,0.9c-2.4,2-4.7,4.2-6.9,6.5c-0.7,0.8-1.2,2.1-1.2,3.2c0.3,3.2,0.8,6.4,1.3,9.6c0.2,1.1,0.6,2.3,1.4,3
			c3.5,2.9,7.2,5.5,10.8,8.3c2.3,1.8,4.8,2.9,7.7,3.3c2.6,0.3,5.2,0.9,7.8,1.3c0.7,0.1,1.7-0.1,2.3-0.6
			C207.3,307.3,210,304.5,212.8,301.8z M375.7,264.3c3.4,0.5,6.8,0.8,10,1.5c2.1,0.4,4,0.1,5.7-1.1c4.4-3.1,8.8-6.2,13.2-9.3
			c0.4-0.3,0.7-0.8,0.9-1.3c1.5-3.2,3-6.4,4.4-9.7c0.3-0.7,0.3-1.8,0-2.5c-1.4-3.2-3-6.3-4.7-9.3c-0.4-0.7-1.4-1.4-2.2-1.6
			c-2.9-0.6-5.9-1.1-8.9-1.3c-1.4-0.1-3.2,0-4.4,0.8c-4.8,3.1-9.4,6.4-14.1,9.7c-0.5,0.3-0.7,1-1,1.5c-1.5,3.1-3,6.3-4.3,9.5
			c-0.3,0.7-0.3,1.7,0,2.3C372,257.1,373.8,260.6,375.7,264.3z M242.7,305.3c-0.8,3.9-1.7,7.8-2.4,11.6c-0.2,1,0.3,2.3,0.9,3
			c1.8,2.3,3.8,4.5,5.9,6.5c1.1,1,2.7,2.1,4,2.2c6.1,0.2,12.3,0.1,18.5,0.1c0.4,0,0.9-0.2,1.3-0.5c3.2-2.1,6.3-4.1,9.4-6.3
			c0.5-0.3,1-1,1.1-1.6c0.5-3.9,0.8-7.8,1.3-11.9c-3.2-2.8-6.4-5.6-9.6-8.3c-0.5-0.4-1.3-0.6-1.9-0.6c-5.2,0-10.5,0-15.7,0.1
			c-0.4,0-0.9,0.1-1.3,0.3C250.3,301.8,246.5,303.6,242.7,305.3z M627.4,560.2c2.9,0.2,5.8,0.1,8.6,0.6c4.6,0.9,7.6-1.3,10.5-4.3
			c1.4-1.5,3.1-2.8,4.4-4.4c1.8-2,4-4,4.9-6.4c1.5-3.9,2.2-8.2,3.2-12.3c-1.6-1.9-3.3-3.7-4.6-5.7c-2.2-3.5-4.9-5.1-9.2-4.3
			c-2,0.4-4.2,0.1-6.2,0.2c-0.7,0-1.6,0-2,0.4c-4.3,4.3-9,8.3-12.5,13.2c-2.4,3.3-3.1,7.8-4.6,11.8c2.3,3.4,4.5,6.8,6.7,10.1
			C626.9,559.5,627.2,559.8,627.4,560.2z M503.6,210.5c2.4,3.1,4.7,6.1,7.1,9c0.8,0.9,2,1.9,3.1,2c4.2,0.7,8.4,1.1,12.6,1.6
			c1.9,0.2,3.9,0.6,5.7,0.2c3.2-0.7,6.3-2,9.4-3.1c0.8-0.3,1.7-1,1.9-1.7c1.4-3.8,2.6-7.7,3.8-11.7c-2.3-3.1-4.5-6.2-6.8-9.1
			c-0.7-0.8-1.7-1.7-2.7-1.9c-4.8-0.9-9.5-1.7-14.3-2.4c-1.7-0.2-3.6-0.4-5.2,0.1c-3.2,0.9-6.4,2.3-9.5,3.6
			c-0.7,0.3-1.5,1.1-1.7,1.8C505.7,202.7,504.7,206.5,503.6,210.5z M677,315c-2.1,3.4-4.3,6.8-6.3,10.2c-0.4,0.7-0.5,1.8-0.4,2.6
			c0.5,3.1,1.1,6.2,1.9,9.2c0.9,3.4,0.7,7.2,3.4,10.1c2.2,2.4,3.7,6.1,6.4,7.3c2.7,1.2,6.5,0.1,9.8,0.1c2.2,0,3.7-0.6,4.9-2.6
			c1.4-2.4,3.3-4.4,4.9-6.7c0.6-0.9,1.2-2.2,1-3.1c-0.8-5.2-1.8-10.4-2.8-15.6c-0.2-1.1-0.5-2.4-1.2-3.2c-2.7-3.3-5.6-6.6-8.4-9.8
			C685.8,314.1,681.4,314.5,677,315z M487.9,575.4c-1.3,3.8-2.6,7.5-3.7,11.3c-0.2,0.7,0.1,1.7,0.5,2.3c1.8,2.7,3.6,5.4,5.6,8
			c0.6,0.8,1.5,1.6,2.4,1.9c4.1,1.1,8.2,2.3,12.3,3c2.7,0.4,5.6,0.5,8.2-0.1c3.2-0.7,6.2-2.3,9.2-3.7c0.9-0.4,1.9-1.5,2.2-2.5
			c0.9-3.1,1.5-6.3,2.1-9.5c0.1-0.7,0.2-1.7-0.2-2.2c-2.4-3.1-4.9-6.1-7.5-9.1c-0.4-0.4-1.1-0.6-1.6-0.7c-4-0.8-8.1-1.3-12-2.2
			c-3.2-0.7-6.2-0.3-9.3,0.9C493.4,573.7,490.8,574.5,487.9,575.4z M671.9,283.2c0.5-2.9,0.7-6,1.6-8.8c1.6-5-1.4-8.4-3.7-12
			c-1.9-2.9-4.6-5.4-6.9-8c-0.6-0.6-1.3-1.4-2-1.7c-3.5-1.4-7-2.7-10.6-4c-0.7-0.2-1.8-0.1-2.5,0.3c-2.9,1.8-5.8,3.8-8.7,5.8
			c-0.6,0.4-1.2,1.3-1.2,2c-0.2,3.8-0.3,7.6-0.3,11.3c0,0.7,0.4,1.5,0.8,2.1c2.3,3,4.7,5.9,7.1,8.8c1.2,1.4,2.3,3,3.8,4
			c3,2,6.3,3.7,9.5,5.3c0.7,0.4,1.8,0.4,2.5,0.1C664.8,286.8,668.3,285,671.9,283.2z M430.9,208.7c1.1,3.9,2.1,7.7,3.3,11.4
			c0.3,0.8,1.1,1.6,1.9,2c3,1.2,6,2.4,9.1,3.4c1.2,0.4,2.6,0.5,3.8,0.1c3.5-1,6.9-2.2,10.3-3.4c1.4-0.5,3-0.6,4-1.4
			c2.9-2.2,5.6-4.6,8.3-7.1c0.5-0.5,1-1.3,1-1.9c0-3.6-0.1-7.1-0.4-10.7c0-0.7-0.5-1.5-1-1.9c-3-2.1-6.1-4.2-9.2-6.2
			c-0.7-0.4-1.6-0.5-2.4-0.6c-7.3-0.2-13.7,3.3-20.3,5.7c-0.4,0.1-0.7,0.6-0.9,1C435.9,202.3,433.4,205.4,430.9,208.7z M424.9,545
			c-2.2,2.4-4.1,4.8-6.4,6.9c-1.8,1.8-2.6,3.5-1.7,6.1c0.9,2.6,1.2,5.4,1.9,8.1c0.2,0.9,0.8,1.9,1.5,2.5
			c8.1,6.4,16.6,11.8,27.6,10.3c0.9-0.1,1.9-0.5,2.5-1.2c2.1-2.4,4.1-4.8,6-7.4c0.6-0.9,0.9-2.2,0.8-3.3c-0.4-2.6-1.4-5.1-1.8-7.6
			c-0.4-2.5-1.6-4.5-3.7-5.8c-4.3-2.6-8.7-5-13-7.5c-0.3-0.1-0.6-0.2-0.9-0.2C433.4,545.6,429.3,545.3,424.9,545z M673.3,501.2
			c3.9-1.4,7.7-2.8,11.5-4.3c0.6-0.2,1.2-0.9,1.6-1.5c3.6-5.4,5.5-11.5,7.3-17.6c0.2-0.8,0.2-1.7,0-2.5c-0.6-3.3-1.1-6.7-1.8-10
			c-0.1-0.7-0.6-1.5-1.2-1.8c-3.4-1.9-6.9-3.7-10.5-5.5c-3.5,1.8-7,3.4-10.4,5.2c-0.9,0.5-1.9,1.4-2.3,2.3c-2.1,5-4,10-5.9,15
			c-0.2,0.5-0.2,1.2-0.1,1.8c0.3,3.8,0.6,7.5,0.9,11.5C665.9,496.3,669.6,498.8,673.3,501.2z M693.5,429.5c2.5-1.8,4.7-3.9,7.2-5.2
			c3.8-2.1,4.6-5.7,5.1-9.3c1.1-8.4,0.9-16.8-4.2-24.2c0-0.1,0-0.2-0.1-0.2c-0.8-0.6-1.5-1.5-2.4-1.8c-2.6-0.7-5.3-1-7.9-1.8
			c-2.4-0.7-4.2-0.2-6,1.5c-1.9,1.8-4.1,3.3-6,5c-0.8,0.7-1.6,1.8-1.7,2.8c-0.5,5.5-0.7,11.1-1,16.6c0,0.6,0.2,1.2,0.4,1.8
			c1.2,3.2,2.3,6.4,3.6,9.5c0.4,0.8,1.3,1.7,2.2,2C686.3,427.4,689.9,428.4,693.5,429.5z M581.8,211c-1.7,2.9-3.3,5.8-5,8.5
			c-1.1,1.7-1.4,3.2-0.4,5.1c1.3,2.6,2.2,5.4,3.4,8.1c0.5,1,1.3,2.2,2.3,2.7c4.8,2.3,9.6,4.5,14.4,6.6c0.5,0.2,1.1,0.2,1.6,0.2
			c2.3,0,4.6-0.3,6.9-0.1c3.8,0.3,6.5-0.8,8.2-4.4c0.9-1.9,2.5-3.5,3.6-5.3c0.4-0.6,0.6-1.5,0.5-2.1c-1-3.6-2-7.1-3.1-10.6
			c-0.2-0.6-0.7-1.1-1.2-1.6c-5.2-4.5-11.8-6.1-17.9-8.8c-0.3-0.1-0.6-0.1-0.9-0.1C589.9,209.8,585.8,210.4,581.8,211z M599.2,583.2
			c-0.7-4-1.3-7.8-2-11.5c-0.2-0.8-0.8-1.7-1.5-2.1c-3-1.8-6-3.5-9.1-5.1c-0.7-0.4-1.7-0.6-2.4-0.4c-2.3,0.5-4.5,1.1-6.7,1.8
			c-2.7,0.9-5.4,1.9-8,2.9c-1,0.4-2.2,0.4-2.9,1.1c-2.9,2.5-5.8,5.1-8.4,7.5c0,4.6,0,8.9,0,13.1c3.3,2.2,6.2,4.3,9.4,6.2
			c1.2,0.7,2.7,1.1,4.1,1.1c5.6,0,10.6-2.4,15.7-4.3c1.1-0.4,2.4-0.9,3.2-1.7C593.5,588.9,596.3,586.1,599.2,583.2z M157.6,255.1
			c0.7-4,1.4-7.8,2-11.7c0.1-0.8,0.1-1.8-0.3-2.4c-3.4-5-6.8-10-10.3-15c-0.2-0.3-0.7-0.5-1.1-0.8c-3.1-1.6-6.1-3.3-9.2-4.8
			c-0.6-0.3-1.5-0.5-2.1-0.3c-3.7,1.6-7.4,3.4-11.1,5.1c-0.7,4-1.4,7.9-2,11.7c-0.1,0.9-0.1,2.1,0.4,2.8c3.3,4.9,6.7,9.7,10.2,14.6
			c0.3,0.4,0.9,0.6,1.3,0.9c3.4,1.8,6.8,3.5,10.3,5.3C149.5,258.8,153.4,257,157.6,255.1z"/>
		<path d="M227.3,559.1c9.5,9.5,18.6,18.5,27.6,27.6c2.3,2.3,4.7,4.5,6.8,7c5.3,6,4.9,15.1-0.8,20.5c-5.9,5.6-14.9,5.7-20.7,0
			c-10.8-10.6-21.4-21.4-32.1-32.1c-0.5-0.5-0.8-1.1-1.4-1.9c-0.9,0.9-1.5,1.4-2.1,2c-10.6,10.6-21.1,21.3-31.8,31.8
			c-8.4,8.2-22.1,4.4-25-6.8c-1.5-5.7,0.2-10.6,4.4-14.8c10.4-10.4,20.8-20.8,31.2-31.1c0.6-0.6,1.3-1.1,2.1-1.7
			c-0.8-0.9-1.4-1.5-2-2.1c-10.5-10.5-21.1-21.1-31.6-31.6c-6.1-6.1-6.4-15.3-0.7-21.1c6.1-6.2,15.5-6.2,21.7,0
			c10.6,10.5,21.1,21.1,31.7,31.6c0.6,0.6,1.2,1.2,1.9,1.8c0.7-0.7,1.3-1.2,1.9-1.8c10.4-10.4,20.7-20.8,31.1-31.1
			c5-5,12.2-6.3,18.1-3.4c9.1,4.5,11.1,16.3,3.9,23.6c-10.6,10.7-21.3,21.3-32,32C228.8,557.9,228.1,558.4,227.3,559.1z"/>
		<path d="M326.2,308.9c-3.8-1.1-7.8-2.3-11.7-3.6c-0.4-0.1-0.7-1-0.9-1.5c-1.2-3.2-2.4-6.3-3.5-9.5c-0.2-0.7,0.1-1.7,0.2-2.5
			c0.1-0.4,0.5-0.8,0.7-1.2c4.1-9.5,12.7-13.6,21.3-17.6c0.9-0.4,2.2-0.4,3.3-0.1c3.2,0.8,6.4,1.7,9.5,2.7c0.9,0.3,1.8,1.1,2.2,2
			c1.3,3,2.4,6.2,3.4,9.3c0.3,0.8,0,1.9-0.2,2.8c-0.2,0.6-0.8,1.1-1.1,1.8c-4.2,9.4-12.9,13.2-21.4,17.1c-0.3,0.2-0.7,0.3-1.1,0.4
			C326.7,308.8,326.5,308.8,326.2,308.9z"/>
		<path d="M352.7,520.2c3.9-1.4,7.6-2.8,11.4-4.2c0.5-0.2,1.1-0.3,1.6-0.2c6.6,0.7,13.4,1,19.5,4.3c0.9,0.5,1.9,1.4,2.3,2.3
			c1.8,3.4,4.7,6.9,4.7,10.4c0,3.4-2.9,6.8-4.7,10.1c-0.5,0.9-1.7,1.7-2.7,2c-1.6,0.5-3.3,0.6-5,1c-7.5,1.5-14.8-0.2-21.9-2.1
			c-0.7-0.2-1.5-0.6-1.9-1.2c-2.2-3-4.3-6-6.3-9.1c-0.4-0.5-0.4-1.5-0.2-2.1C350.4,527.6,351.5,524,352.7,520.2z"/>
		<path d="M320.9,546.4c-2.4,3.3-4.8,6.4-7.1,9.6c-0.3,0.4-0.7,0.9-1.1,1.1c-5.2,2.4-10.3,4.8-15.6,6.9c-1.3,0.5-3.2,0.3-4.6-0.2
			c-2.7-0.8-5.4-1.9-8-3.1c-0.9-0.4-1.8-1.4-2.2-2.3c-1.1-3.2-2-6.5-2.8-9.8c-0.2-0.8,0-1.9,0.4-2.5c2.1-3,4.3-5.9,6.4-8.8
			c0.2-0.3,0.5-0.7,0.8-0.8c5.6-2.5,11.2-5,16.9-7.4c0.5-0.2,1.3-0.3,1.8-0.1c3.7,1.3,7.4,2.6,11,4.1c0.5,0.2,1,1,1.1,1.6
			C319,538.6,319.9,542.4,320.9,546.4z"/>
		<path d="M212.8,301.8c-2.8,2.7-5.5,5.5-8.4,8.2c-0.5,0.5-1.5,0.7-2.3,0.6c-2.6-0.3-5.2-1-7.8-1.3c-2.9-0.3-5.4-1.5-7.7-3.3
			c-3.6-2.8-7.3-5.5-10.8-8.3c-0.8-0.6-1.2-1.9-1.4-3c-0.6-3.2-1.1-6.4-1.3-9.6c-0.1-1,0.4-2.4,1.2-3.2c2.1-2.3,4.4-4.5,6.9-6.5
			c0.8-0.7,2.2-1,3.2-0.9c2.3,0.2,4.6,0.8,6.8,1.1c2.7,0.4,5.2,1.2,7.4,3c3.6,2.9,7.4,5.5,11,8.4c0.8,0.6,1.4,1.9,1.5,2.9
			C211.7,293.7,212.2,297.5,212.8,301.8z"/>
		<path d="M375.7,264.3c-1.9-3.7-3.7-7.3-5.4-10.9c-0.3-0.6-0.2-1.6,0-2.3c1.4-3.2,2.9-6.3,4.3-9.5c0.3-0.5,0.5-1.2,1-1.5
			c4.7-3.3,9.3-6.6,14.1-9.7c1.2-0.7,2.9-0.9,4.4-0.8c3,0.2,6,0.7,8.9,1.3c0.8,0.2,1.8,0.8,2.2,1.6c1.7,3,3.2,6.1,4.7,9.3
			c0.3,0.7,0.3,1.8,0,2.5c-1.4,3.3-2.9,6.5-4.4,9.7c-0.2,0.5-0.5,1-0.9,1.3c-4.4,3.1-8.8,6.2-13.2,9.3c-1.7,1.2-3.5,1.5-5.7,1.1
			C382.5,265.1,379.2,264.8,375.7,264.3z"/>
		<path d="M242.7,305.3c3.8-1.7,7.5-3.5,11.3-5.2c0.4-0.2,0.9-0.3,1.3-0.3c5.2-0.1,10.5-0.1,15.7-0.1c0.6,0,1.4,0.2,1.9,0.6
			c3.3,2.7,6.4,5.5,9.6,8.3c-0.4,4.1-0.8,8-1.3,11.9c-0.1,0.6-0.6,1.3-1.1,1.6c-3.1,2.1-6.3,4.2-9.4,6.3c-0.4,0.2-0.8,0.5-1.3,0.5
			c-6.2,0-12.3,0.1-18.5-0.1c-1.4-0.1-3-1.1-4-2.2c-2.1-2-4.1-4.2-5.9-6.5c-0.6-0.8-1.1-2.1-0.9-3
			C241,313.1,241.9,309.2,242.7,305.3z"/>
		<path d="M627.4,560.2c-0.3-0.3-0.5-0.6-0.7-0.9c-2.2-3.3-4.4-6.7-6.7-10.1c1.5-4,2.2-8.5,4.6-11.8c3.5-4.9,8.3-8.9,12.5-13.2
			c0.4-0.4,1.3-0.4,2-0.4c2.1-0.1,4.2,0.2,6.2-0.2c4.2-0.9,7,0.8,9.2,4.3c1.3,2,3,3.7,4.6,5.7c-1,4.1-1.7,8.3-3.2,12.3
			c-0.9,2.4-3.1,4.3-4.9,6.4c-1.4,1.6-3,2.9-4.4,4.4c-2.9,3-5.9,5.2-10.5,4.3C633.2,560.2,630.3,560.3,627.4,560.2z"/>
		<path d="M503.6,210.5c1.1-3.9,2.1-7.7,3.3-11.5c0.2-0.7,1-1.5,1.7-1.8c3.1-1.3,6.3-2.7,9.5-3.6c1.6-0.5,3.5-0.3,5.2-0.1
			c4.8,0.7,9.6,1.4,14.3,2.4c1,0.2,2,1.1,2.7,1.9c2.3,3,4.5,6,6.8,9.1c-1.3,3.9-2.4,7.8-3.8,11.7c-0.3,0.7-1.2,1.4-1.9,1.7
			c-3.1,1.2-6.2,2.4-9.4,3.1c-1.8,0.4-3.8,0-5.7-0.2c-4.2-0.4-8.4-0.9-12.6-1.6c-1.1-0.2-2.3-1.1-3.1-2
			C508.2,216.6,506,213.6,503.6,210.5z"/>
		<path d="M677,315c4.4-0.5,8.8-0.9,13.3-1.4c2.8,3.2,5.7,6.4,8.4,9.8c0.7,0.8,1,2.1,1.2,3.2c1,5.2,2,10.4,2.8,15.6
			c0.1,1-0.4,2.2-1,3.1c-1.5,2.3-3.5,4.4-4.9,6.7c-1.2,2-2.8,2.6-4.9,2.6c-3.3,0-7.1,1.1-9.8-0.1c-2.7-1.2-4.2-4.9-6.4-7.3
			c-2.7-2.9-2.5-6.7-3.4-10.1c-0.8-3-1.4-6.1-1.9-9.2c-0.1-0.8,0-1.9,0.4-2.6C672.7,321.8,674.9,318.4,677,315z"/>
		<path d="M487.9,575.4c2.8-0.9,5.5-1.7,8.1-2.7c3-1.1,6-1.6,9.3-0.9c4,0.9,8,1.5,12,2.2c0.6,0.1,1.3,0.3,1.6,0.7
			c2.6,3,5.1,6,7.5,9.1c0.4,0.5,0.4,1.5,0.2,2.2c-0.6,3.2-1.2,6.4-2.1,9.5c-0.3,1-1.2,2.1-2.2,2.5c-3,1.4-6,2.9-9.2,3.7
			c-2.6,0.6-5.5,0.5-8.2,0.1c-4.2-0.7-8.2-1.9-12.3-3c-0.9-0.3-1.8-1.1-2.4-1.9c-1.9-2.6-3.8-5.3-5.6-8c-0.4-0.6-0.7-1.6-0.5-2.3
			C485.3,582.9,486.6,579.2,487.9,575.4z"/>
		<path d="M671.9,283.2c-3.6,1.8-7.1,3.6-10.7,5.3c-0.7,0.3-1.8,0.3-2.5-0.1c-3.2-1.7-6.4-3.3-9.5-5.3c-1.5-1-2.6-2.6-3.8-4
			c-2.4-2.9-4.8-5.8-7.1-8.8c-0.4-0.6-0.8-1.4-0.8-2.1c0-3.8,0.1-7.6,0.3-11.3c0-0.7,0.6-1.6,1.2-2c2.8-2,5.7-3.9,8.7-5.8
			c0.7-0.4,1.8-0.6,2.5-0.3c3.6,1.2,7.1,2.5,10.6,4c0.8,0.3,1.4,1,2,1.7c2.4,2.6,5,5.1,6.9,8c2.4,3.5,5.4,7,3.7,12
			C672.6,277.2,672.4,280.3,671.9,283.2z"/>
		<path d="M430.9,208.7c2.5-3.2,5-6.4,7.4-9.4c0.3-0.4,0.6-0.9,0.9-1c6.6-2.3,13-5.8,20.3-5.7c0.8,0,1.7,0.1,2.4,0.6
			c3.1,2,6.2,4,9.2,6.2c0.5,0.4,1,1.2,1,1.9c0.2,3.5,0.3,7.1,0.4,10.7c0,0.6-0.5,1.4-1,1.9c-2.7,2.4-5.4,4.9-8.3,7.1
			c-1.1,0.8-2.7,0.9-4,1.4c-3.4,1.1-6.8,2.4-10.3,3.4c-1.2,0.3-2.6,0.2-3.8-0.1c-3.1-1-6.1-2.1-9.1-3.4c-0.8-0.3-1.7-1.2-1.9-2
			C433,216.4,432,212.6,430.9,208.7z"/>
		<path d="M424.9,545c4.3,0.3,8.5,0.6,12.7,0.9c0.3,0,0.6,0,0.9,0.2c4.3,2.5,8.7,4.9,13,7.5c2.1,1.3,3.3,3.3,3.7,5.8
			c0.4,2.6,1.4,5.1,1.8,7.6c0.2,1-0.1,2.4-0.8,3.3c-1.8,2.6-3.9,5-6,7.4c-0.6,0.6-1.6,1.1-2.5,1.2c-11,1.4-19.5-3.9-27.6-10.3
			c-0.7-0.6-1.2-1.6-1.5-2.5c-0.7-2.7-1-5.5-1.9-8.1c-0.9-2.6-0.1-4.3,1.7-6.1C420.8,549.8,422.8,547.4,424.9,545z"/>
		<path d="M673.3,501.2c-3.7-2.5-7.4-4.9-11-7.3c-0.3-3.9-0.6-7.7-0.9-11.5c0-0.6-0.1-1.3,0.1-1.8c1.9-5,3.8-10.1,5.9-15
			c0.4-0.9,1.4-1.8,2.3-2.3c3.4-1.8,6.9-3.5,10.4-5.2c3.5,1.8,7,3.6,10.5,5.5c0.6,0.3,1,1.1,1.2,1.8c0.7,3.3,1.3,6.7,1.8,10
			c0.1,0.8,0.2,1.7,0,2.5c-1.7,6.2-3.7,12.2-7.3,17.6c-0.4,0.6-1,1.3-1.6,1.5C681,498.5,677.2,499.8,673.3,501.2z"/>
		<path d="M693.5,429.5c-3.7-1.1-7.3-2.1-10.8-3.3c-0.9-0.3-1.8-1.2-2.2-2c-1.3-3.1-2.4-6.3-3.6-9.5c-0.2-0.6-0.4-1.2-0.4-1.8
			c0.3-5.5,0.5-11.1,1-16.6c0.1-1,0.9-2.1,1.7-2.8c1.9-1.8,4.2-3.2,6-5c1.8-1.8,3.6-2.3,6-1.5c2.6,0.8,5.3,1.1,7.9,1.8
			c0.9,0.3,1.6,1.2,2.4,1.8c0.1,0,0,0.2,0.1,0.2c5.1,7.4,5.3,15.8,4.2,24.2c-0.5,3.6-1.2,7.2-5.1,9.3
			C698.2,425.6,696,427.6,693.5,429.5z"/>
		<path d="M581.8,211c4-0.6,8.1-1.2,12.3-1.8c0.3,0,0.6-0.1,0.9,0.1c6.1,2.7,12.8,4.2,17.9,8.8c0.5,0.4,1.1,1,1.2,1.6
			c1.1,3.5,2.2,7.1,3.1,10.6c0.2,0.6-0.1,1.5-0.5,2.1c-1.2,1.8-2.7,3.4-3.6,5.3c-1.7,3.6-4.4,4.7-8.2,4.4c-2.3-0.2-4.6,0.1-6.9,0.1
			c-0.5,0-1.1,0-1.6-0.2c-4.8-2.2-9.7-4.3-14.4-6.6c-1-0.5-1.8-1.6-2.3-2.7c-1.2-2.6-2.1-5.5-3.4-8.1c-1-1.9-0.7-3.4,0.4-5.1
			C578.5,216.8,580.1,214,581.8,211z"/>
		<path d="M599.2,583.2c-2.9,2.9-5.7,5.7-8.6,8.4c-0.9,0.8-2.1,1.2-3.2,1.7c-5.1,1.9-10.1,4.4-15.7,4.3c-1.4,0-2.9-0.4-4.1-1.1
			c-3.1-1.9-6.1-4-9.4-6.2c0-4.2,0-8.5,0-13.1c2.6-2.3,5.4-5,8.4-7.5c0.7-0.6,1.9-0.7,2.9-1.1c2.7-1,5.3-2,8-2.9
			c2.2-0.7,4.4-1.3,6.7-1.8c0.7-0.2,1.7,0.1,2.4,0.4c3.1,1.6,6.1,3.3,9.1,5.1c0.7,0.4,1.3,1.3,1.5,2.1
			C597.9,575.4,598.5,579.2,599.2,583.2z"/>
		<path d="M157.6,255.1c-4.1,1.9-8,3.7-11.9,5.5c-3.5-1.8-6.9-3.6-10.3-5.3c-0.5-0.2-1-0.5-1.3-0.9c-3.4-4.8-6.9-9.6-10.2-14.6
			c-0.5-0.7-0.5-1.9-0.4-2.8c0.6-3.9,1.3-7.7,2-11.7c3.7-1.7,7.4-3.5,11.1-5.1c0.6-0.2,1.5,0,2.1,0.3c3.1,1.5,6.2,3.2,9.2,4.8
			c0.4,0.2,0.9,0.4,1.1,0.8c3.5,5,6.9,10,10.3,15c0.4,0.6,0.5,1.6,0.3,2.4C159,247.3,158.3,251.1,157.6,255.1z"/>
	</g>
</g>
</svg>
